# xmcd CD database file
#
# Track frame offsets:
#	150
#	3157
#	19027
#	40017
#	58320
#	81950
#	109137
#	137580
#	162197
#	179152
#	209102
#	221352
#	246135
#	272410
#	295692
#	303530
#
# Disc length: 4440 seconds
#
# Revision: 1
# Processed by: cddbd v1.5.2PL0 Copyright (c) Steve Scherf et al.
# Submitted via: CDex 1.70beta2
#
DISCID=e4115610
DTITLE=Travelling - Travelling - Travelling 1 [CD 2)
DYEAR=1900
DGENRE=
TTITLE0=Planet Gongs
TTITLE1=Industrial Waste 
TTITLE2=Bullet 350
TTITLE3=Ulysses
TTITLE4=230.000 Miles
TTITLE5=In Too Deep
TTITLE6=One Love
TTITLE7=Forbidden
TTITLE8=Ganesh
TTITLE9=Razor
TTITLE10=Nothing Can Save Us, London
TTITLE11=Future Space Travellers
TTITLE12=Cycles Of Live
TTITLE13=Atomic Armadillo
TTITLE14=ICP
TTITLE15=Hear The Rich Boy (Just Passing Through)
EXTD=
EXTT0=
EXTT1=
EXTT2=
EXTT3=
EXTT4=
EXTT5=
EXTT6=
EXTT7=
EXTT8=
EXTT9=
EXTT10=
EXTT11=
EXTT12=
EXTT13=
EXTT14=
EXTT15=
PLAYORDER=
